<svg xmlns="http://www.w3.org/2000/svg" viewBox="0 0 512 512">
  <defs>
    <linearGradient id="bg" x1="94" y1="56" x2="420" y2="458" gradientUnits="userSpaceOnUse">
      <stop stop-color="#0f766e"/>
      <stop offset="1" stop-color="#22a95d"/>
    </linearGradient>
  </defs>
  <rect width="512" height="512" rx="108" fill="url(#bg)"/>
  <path d="M132 118h248c26 0 47 21 47 47v207c0 26-21 47-47 47H132c-26 0-47-21-47-47V165c0-26 21-47 47-47Z" fill="#f6fff9" opacity=".97"/>
  <path d="M85 195h342" stroke="#0f8f54" stroke-width="26" stroke-linecap="round" opacity=".34"/>
  <circle cx="142" cy="156" r="15" fill="#0f8f54" opacity=".9"/>
  <circle cx="190" cy="156" r="15" fill="#0f8f54" opacity=".55"/>
  <path d="M325 225h67v-67" fill="none" stroke="#10392e" stroke-width="42" stroke-linecap="round" stroke-linejoin="round"/>
  <path d="M337 184a104 104 0 1 0 27 108" fill="none" stroke="#10392e" stroke-width="42" stroke-linecap="round"/>
  <path d="M252 237v63l48 30" fill="none" stroke="#0f8f54" stroke-width="32" stroke-linecap="round" stroke-linejoin="round"/>
</svg>
